<svg xmlns="http://www.w3.org/2000/svg" width="325.484" height="42.125" viewBox="0 0 325.484 42.125">
  <g id="Group_22388" data-name="Group 22388" transform="translate(-133.364 -373.997)">
    <g id="Trusted_User" data-name="Trusted User" style="isolation: isolate">
      <g id="Group_25576" data-name="Group 25576" style="isolation: isolate">
        <path id="Path_71882" data-name="Path 71882" d="M137.727,415.486l5.988-27.4h-9.909l1.8-7.949h28.882l-1.749,7.949h-9.857l-6.041,27.4Z" fill="#030504"/>
        <path id="Path_71883" data-name="Path 71883" d="M161.9,415.486l5.67-25.6h8.161l-.689,3.073a11.675,11.675,0,0,1,8.85-3.763l-1.8,8a11.1,11.1,0,0,0-2.649-.371,8.354,8.354,0,0,0-5.83,2.544l-3.55,16.11Z" fill="#030504"/>
        <path id="Path_71884" data-name="Path 71884" d="M196.609,389.891l-3.286,14.785a6.86,6.86,0,0,0-.158,1.378c0,2.066,1.7,2.861,3.921,2.861a7.6,7.6,0,0,0,5.034-2.544l3.657-16.48h8.161l-5.67,25.6h-8.162l.743-3.127c-1.961,1.8-4.505,3.763-8.321,3.763-5.14,0-8.214-2.756-8.214-6.624a16.533,16.533,0,0,1,.266-2.12l3.868-17.487Z" fill="#030504"/>
        <path id="Path_71885" data-name="Path 71885" d="M214.418,411.459l4.452-5.671a14.056,14.056,0,0,0,9.115,3.975c1.642,0,2.6-.742,2.6-1.748,0-2.7-12.772-1.749-12.772-9.751,0-4.611,3.868-9.009,10.97-9.009a17.149,17.149,0,0,1,11.393,4.133l-4.08,5.4a11.119,11.119,0,0,0-7.42-3.18c-1.907,0-2.808.69-2.808,1.537,0,2.492,12.824,1.8,12.824,9.751,0,5.141-4.292,9.221-11.6,9.221C222.367,416.122,217.545,414.479,214.418,411.459Z" fill="#030504"/>
        <path id="Path_71886" data-name="Path 71886" d="M245.052,410.134a9.754,9.754,0,0,1,.212-1.907l2.49-11.289h-4.239l1.589-7.047h4.24l1.537-6.995h8.161l-1.537,6.995H262.7l-1.59,7.047h-5.193l-2.014,9.009a4.565,4.565,0,0,0-.053.848c0,1.272.741,2.12,2.438,2.12a3.16,3.16,0,0,0,1.589-.424l.106,6.519a8.112,8.112,0,0,1-4.345,1.112C248.6,416.122,245.052,414.268,245.052,410.134Z" fill="#030504"/>
        <path id="Path_71887" data-name="Path 71887" d="M263.124,404.517a14.972,14.972,0,0,1,15-15.262c6.464,0,11.764,4.08,11.764,11.552a19.927,19.927,0,0,1-.583,4.557H271.232c-.053.054-.053.266-.053.371,0,1.273,2.067,3.816,6.306,3.816a11.184,11.184,0,0,0,5.989-1.59l2.384,5.671a17.313,17.313,0,0,1-9.114,2.49C268.635,416.122,263.124,411.883,263.124,404.517Zm19.555-5.035c0-1.7-1.484-3.657-5.034-3.657a5.512,5.512,0,0,0-5.565,3.975h10.6Z" fill="#030504"/>
        <path id="Path_71888" data-name="Path 71888" d="M314.425,392.911l2.861-12.771h8.109l-7.843,35.346h-8.109l.69-2.967c-2.227,2.491-4.505,3.6-7.366,3.6-5.724,0-9.592-3.815-9.592-10.6,0-7.419,4.557-16.268,13.46-16.268A9.3,9.3,0,0,1,314.425,392.911ZM301.6,403.774a4.857,4.857,0,0,0,4.981,5.141,6.372,6.372,0,0,0,4.822-2.385l1.749-7.737a6.386,6.386,0,0,0-5.088-2.331C304.3,396.462,301.6,399.8,301.6,403.774Z" fill="#030504"/>
        <path id="Path_71889" data-name="Path 71889" d="M342.3,403.51a16.517,16.517,0,0,1,.264-2.332l4.663-21.038h9.275L351.9,400.966a7.79,7.79,0,0,0-.159,1.484c.053,2.914,2.279,5.723,6.784,5.723,4.875,0,7.366-3.073,8.266-7.207L371.4,380.14h9.221l-4.61,20.985c-1.908,8.585-6.572,15-17.488,15C347.657,416.122,342.3,410.929,342.3,403.51Z" fill="#030504"/>
        <path id="Path_71890" data-name="Path 71890" d="M379.193,411.459l4.452-5.671a14.056,14.056,0,0,0,9.115,3.975c1.642,0,2.6-.742,2.6-1.748,0-2.7-12.771-1.749-12.771-9.751,0-4.611,3.868-9.009,10.97-9.009a17.149,17.149,0,0,1,11.393,4.133l-4.081,5.4a11.114,11.114,0,0,0-7.419-3.18c-1.908,0-2.808.69-2.808,1.537,0,2.492,12.824,1.8,12.824,9.751,0,5.141-4.292,9.221-11.606,9.221C387.142,416.122,382.319,414.479,379.193,411.459Z" fill="#030504"/>
        <path id="Path_71891" data-name="Path 71891" d="M407.759,404.517a14.973,14.973,0,0,1,15-15.262c6.466,0,11.765,4.08,11.765,11.552a19.925,19.925,0,0,1-.583,4.557H415.867c-.053.054-.053.266-.053.371,0,1.273,2.067,3.816,6.306,3.816a11.181,11.181,0,0,0,5.988-1.59l2.385,5.671a17.313,17.313,0,0,1-9.114,2.49C413.271,416.122,407.759,411.883,407.759,404.517Zm19.554-5.035c0-1.7-1.483-3.657-5.034-3.657a5.511,5.511,0,0,0-5.564,3.975h10.6Z" fill="#030504"/>
        <path id="Path_71892" data-name="Path 71892" d="M436.855,415.486l5.67-25.6h8.162l-.69,3.073a11.675,11.675,0,0,1,8.851-3.763l-1.8,8a11.109,11.109,0,0,0-2.65-.371,8.354,8.354,0,0,0-5.83,2.544l-3.55,16.11Z" fill="#030504"/>
      </g>
    </g>
    <g id="Trusted_User-2" data-name="Trusted User-2" style="isolation: isolate">
      <g id="Group_25577" data-name="Group 25577" style="isolation: isolate">
        <path id="Path_71893" data-name="Path 71893" d="M137.285,409.344l5.988-27.4h-9.909l1.8-7.949h28.881l-1.749,7.949h-9.857l-6.041,27.4Z" fill="#e9d2a8"/>
        <path id="Path_71894" data-name="Path 71894" d="M161.454,409.344l5.67-25.6h8.161l-.689,3.073a11.675,11.675,0,0,1,8.85-3.763l-1.8,8a11.1,11.1,0,0,0-2.649-.371,8.354,8.354,0,0,0-5.83,2.544l-3.55,16.111Z" fill="#e9d2a8"/>
        <path id="Path_71895" data-name="Path 71895" d="M196.167,383.748l-3.286,14.785a6.868,6.868,0,0,0-.158,1.378c0,2.067,1.695,2.861,3.921,2.861a7.6,7.6,0,0,0,5.034-2.543l3.657-16.481H213.5l-5.67,25.6h-8.161l.742-3.127c-1.961,1.8-4.505,3.762-8.321,3.762-5.14,0-8.213-2.755-8.213-6.624a16.565,16.565,0,0,1,.265-2.12l3.868-17.487Z" fill="#e9d2a8"/>
        <path id="Path_71896" data-name="Path 71896" d="M213.977,405.316l4.451-5.67a14.055,14.055,0,0,0,9.115,3.974c1.643,0,2.6-.741,2.6-1.748,0-2.7-12.772-1.749-12.772-9.751,0-4.611,3.868-9.009,10.97-9.009a17.149,17.149,0,0,1,11.393,4.133l-4.08,5.4a11.119,11.119,0,0,0-7.42-3.18c-1.907,0-2.808.69-2.808,1.537,0,2.492,12.825,1.8,12.825,9.752,0,5.14-4.293,9.22-11.606,9.22C221.925,409.979,217.1,408.337,213.977,405.316Z" fill="#e9d2a8"/>
        <path id="Path_71897" data-name="Path 71897" d="M244.61,403.991a9.831,9.831,0,0,1,.212-1.907l2.49-11.289h-4.239l1.59-7.047H248.9l1.537-7H258.6l-1.537,7h5.194l-1.59,7.047h-5.193l-2.014,9.01a4.553,4.553,0,0,0-.053.847c0,1.273.741,2.12,2.438,2.12a3.16,3.16,0,0,0,1.589-.423l.106,6.518a8.1,8.1,0,0,1-4.345,1.112C248.16,409.979,244.61,408.125,244.61,403.991Z" fill="#e9d2a8"/>
        <path id="Path_71898" data-name="Path 71898" d="M262.682,398.374a14.973,14.973,0,0,1,15-15.262c6.465,0,11.764,4.08,11.764,11.552a19.942,19.942,0,0,1-.583,4.558H270.79c-.053.053-.053.265-.053.371,0,1.272,2.067,3.815,6.306,3.815a11.184,11.184,0,0,0,5.989-1.59l2.385,5.671a17.31,17.31,0,0,1-9.115,2.49C268.193,409.979,262.682,405.74,262.682,398.374Zm19.555-5.035c0-1.7-1.484-3.657-5.034-3.657a5.512,5.512,0,0,0-5.565,3.975h10.6Z" fill="#e9d2a8"/>
        <path id="Path_71899" data-name="Path 71899" d="M313.983,386.768,316.845,374h8.108l-7.844,35.347H309l.688-2.968c-2.225,2.491-4.5,3.6-7.365,3.6-5.724,0-9.592-3.815-9.592-10.6,0-7.42,4.557-16.269,13.46-16.269A9.3,9.3,0,0,1,313.983,386.768Zm-12.824,10.864a4.857,4.857,0,0,0,4.981,5.14,6.374,6.374,0,0,0,4.822-2.384l1.749-7.738a6.384,6.384,0,0,0-5.087-2.331C303.861,390.319,301.159,393.657,301.159,397.632Z" fill="#e9d2a8"/>
        <path id="Path_71900" data-name="Path 71900" d="M341.862,397.367a16.368,16.368,0,0,1,.266-2.332L346.791,374h9.273l-4.61,20.826a7.791,7.791,0,0,0-.159,1.484c.054,2.915,2.279,5.723,6.783,5.723,4.876,0,7.366-3.073,8.268-7.207L370.956,374h9.221l-4.611,20.985c-1.907,8.585-6.571,15-17.488,15C347.215,409.979,341.862,404.786,341.862,397.367Z" fill="#e9d2a8"/>
        <path id="Path_71901" data-name="Path 71901" d="M378.751,405.316l4.451-5.67a14.057,14.057,0,0,0,9.115,3.974c1.643,0,2.6-.741,2.6-1.748,0-2.7-12.771-1.749-12.771-9.751,0-4.611,3.868-9.009,10.969-9.009a17.151,17.151,0,0,1,11.394,4.133l-4.08,5.4a11.121,11.121,0,0,0-7.42-3.18c-1.907,0-2.809.69-2.809,1.537,0,2.492,12.825,1.8,12.825,9.752,0,5.14-4.293,9.22-11.605,9.22C386.7,409.979,381.878,408.337,378.751,405.316Z" fill="#e9d2a8"/>
        <path id="Path_71902" data-name="Path 71902" d="M407.317,398.374a14.972,14.972,0,0,1,15-15.262c6.465,0,11.765,4.08,11.765,11.552a19.944,19.944,0,0,1-.583,4.558H415.425c-.053.053-.053.265-.053.371,0,1.272,2.067,3.815,6.307,3.815a11.183,11.183,0,0,0,5.988-1.59l2.385,5.671a17.31,17.31,0,0,1-9.115,2.49C412.828,409.979,407.317,405.74,407.317,398.374Zm19.555-5.035c0-1.7-1.484-3.657-5.034-3.657a5.512,5.512,0,0,0-5.565,3.975h10.6Z" fill="#e9d2a8"/>
        <path id="Path_71903" data-name="Path 71903" d="M436.414,409.344l5.67-25.6h8.161l-.689,3.073a11.673,11.673,0,0,1,8.85-3.763l-1.8,8a11.1,11.1,0,0,0-2.65-.371,8.354,8.354,0,0,0-5.829,2.544l-3.551,16.111Z" fill="#e9d2a8"/>
      </g>
    </g>
  </g>
</svg>
